<mxfile host="app.diagrams.net" agent="Mozilla/5.0 (Windows NT 10.0; Win64; x64; rv:141.0) Gecko/20100101 Firefox/141.0" version="28.1.0">
  <diagram name="Page-1" id="X7lqn6tJ26aEgCtuEESt">
    <mxGraphModel dx="4415" dy="2998" grid="1" gridSize="10" guides="1" tooltips="1" connect="1" arrows="1" fold="1" page="1" pageScale="1" pageWidth="850" pageHeight="1100" math="1" shadow="0">
      <root>
        <mxCell id="0" />
        <mxCell id="1" parent="0" />
        <mxCell id="zXH4Re4gvu59KK98Dr5I-225" value="" style="rounded=0;whiteSpace=wrap;html=1;fillColor=none;strokeWidth=24;" parent="1" vertex="1">
          <mxGeometry width="2560" height="1760" as="geometry" />
        </mxCell>
        <mxCell id="zXH4Re4gvu59KK98Dr5I-1" value="" style="whiteSpace=wrap;html=1;aspect=fixed;fillColor=#610061;strokeColor=default;" parent="1" vertex="1">
          <mxGeometry width="160" height="160" as="geometry" />
        </mxCell>
        <mxCell id="zXH4Re4gvu59KK98Dr5I-2" value="" style="whiteSpace=wrap;html=1;aspect=fixed;fillColor=#8200C8;strokeColor=default;" parent="1" vertex="1">
          <mxGeometry x="160" width="160" height="160" as="geometry" />
        </mxCell>
        <mxCell id="zXH4Re4gvu59KK98Dr5I-3" value="" style="whiteSpace=wrap;html=1;aspect=fixed;fillColor=#3D00FF;strokeColor=default;" parent="1" vertex="1">
          <mxGeometry x="320" width="160" height="160" as="geometry" />
        </mxCell>
        <mxCell id="zXH4Re4gvu59KK98Dr5I-4" value="" style="whiteSpace=wrap;html=1;aspect=fixed;fillColor=#0061FF;strokeColor=default;" parent="1" vertex="1">
          <mxGeometry x="480" width="160" height="160" as="geometry" />
        </mxCell>
        <mxCell id="zXH4Re4gvu59KK98Dr5I-5" value="" style="whiteSpace=wrap;html=1;aspect=fixed;fillColor=#00D5FF;strokeColor=default;" parent="1" vertex="1">
          <mxGeometry x="640" width="160" height="160" as="geometry" />
        </mxCell>
        <mxCell id="zXH4Re4gvu59KK98Dr5I-6" value="" style="whiteSpace=wrap;html=1;aspect=fixed;fillColor=#00FF54;strokeColor=default;" parent="1" vertex="1">
          <mxGeometry x="800" width="160" height="160" as="geometry" />
        </mxCell>
        <mxCell id="zXH4Re4gvu59KK98Dr5I-7" value="" style="whiteSpace=wrap;html=1;aspect=fixed;fillColor=#5EFF00;strokeColor=default;" parent="1" vertex="1">
          <mxGeometry x="960" width="160" height="160" as="geometry" />
        </mxCell>
        <mxCell id="zXH4Re4gvu59KK98Dr5I-8" value="" style="whiteSpace=wrap;html=1;aspect=fixed;fillColor=#B3FF00;strokeColor=default;" parent="1" vertex="1">
          <mxGeometry x="1120" width="160" height="160" as="geometry" />
        </mxCell>
        <mxCell id="zXH4Re4gvu59KK98Dr5I-9" value="" style="whiteSpace=wrap;html=1;aspect=fixed;fillColor=#FFFF00;strokeColor=default;" parent="1" vertex="1">
          <mxGeometry x="1280" width="160" height="160" as="geometry" />
        </mxCell>
        <mxCell id="zXH4Re4gvu59KK98Dr5I-10" value="" style="whiteSpace=wrap;html=1;aspect=fixed;fillColor=#FFAD00;strokeColor=default;" parent="1" vertex="1">
          <mxGeometry x="1440" width="160" height="160" as="geometry" />
        </mxCell>
        <mxCell id="zXH4Re4gvu59KK98Dr5I-11" value="" style="whiteSpace=wrap;html=1;aspect=fixed;fillColor=#FF4F00;strokeColor=default;" parent="1" vertex="1">
          <mxGeometry x="1600" width="160" height="160" as="geometry" />
        </mxCell>
        <mxCell id="zXH4Re4gvu59KK98Dr5I-12" value="" style="whiteSpace=wrap;html=1;aspect=fixed;fillColor=#FF0000;strokeColor=default;" parent="1" vertex="1">
          <mxGeometry x="1760" width="160" height="160" as="geometry" />
        </mxCell>
        <mxCell id="zXH4Re4gvu59KK98Dr5I-13" value="" style="whiteSpace=wrap;html=1;aspect=fixed;fillColor=#F60000;strokeColor=default;" parent="1" vertex="1">
          <mxGeometry x="1920" width="160" height="160" as="geometry" />
        </mxCell>
        <mxCell id="zXH4Re4gvu59KK98Dr5I-14" value="" style="whiteSpace=wrap;html=1;aspect=fixed;fillColor=#C80000;strokeColor=default;" parent="1" vertex="1">
          <mxGeometry x="2080" width="160" height="160" as="geometry" />
        </mxCell>
        <mxCell id="zXH4Re4gvu59KK98Dr5I-15" value="" style="whiteSpace=wrap;html=1;aspect=fixed;fillColor=#970000;strokeColor=default;gradientColor=none;" parent="1" vertex="1">
          <mxGeometry x="2240" width="160" height="160" as="geometry" />
        </mxCell>
        <mxCell id="zXH4Re4gvu59KK98Dr5I-16" value="" style="whiteSpace=wrap;html=1;aspect=fixed;fillColor=#610000;strokeColor=default;" parent="1" vertex="1">
          <mxGeometry x="2400" width="160" height="160" as="geometry" />
        </mxCell>
        <mxCell id="zXH4Re4gvu59KK98Dr5I-49" value="" style="whiteSpace=wrap;html=1;aspect=fixed;fillColor=#610061;strokeColor=default;" parent="1" vertex="1">
          <mxGeometry y="160" width="160" height="160" as="geometry" />
        </mxCell>
        <mxCell id="zXH4Re4gvu59KK98Dr5I-50" value="" style="whiteSpace=wrap;html=1;aspect=fixed;fillColor=#8200C8;strokeColor=default;" parent="1" vertex="1">
          <mxGeometry x="160" y="160" width="160" height="160" as="geometry" />
        </mxCell>
        <mxCell id="zXH4Re4gvu59KK98Dr5I-51" value="" style="whiteSpace=wrap;html=1;aspect=fixed;fillColor=#3D00FF;strokeColor=default;" parent="1" vertex="1">
          <mxGeometry x="320" y="160" width="160" height="160" as="geometry" />
        </mxCell>
        <mxCell id="zXH4Re4gvu59KK98Dr5I-52" value="" style="whiteSpace=wrap;html=1;aspect=fixed;fillColor=#0061FF;strokeColor=default;" parent="1" vertex="1">
          <mxGeometry x="480" y="160" width="160" height="160" as="geometry" />
        </mxCell>
        <mxCell id="zXH4Re4gvu59KK98Dr5I-53" value="" style="whiteSpace=wrap;html=1;aspect=fixed;fillColor=#00D5FF;strokeColor=default;" parent="1" vertex="1">
          <mxGeometry x="640" y="160" width="160" height="160" as="geometry" />
        </mxCell>
        <mxCell id="zXH4Re4gvu59KK98Dr5I-54" value="" style="whiteSpace=wrap;html=1;aspect=fixed;fillColor=#00FF54;strokeColor=default;" parent="1" vertex="1">
          <mxGeometry x="800" y="160" width="160" height="160" as="geometry" />
        </mxCell>
        <mxCell id="zXH4Re4gvu59KK98Dr5I-55" value="" style="whiteSpace=wrap;html=1;aspect=fixed;fillColor=#5EFF00;strokeColor=default;" parent="1" vertex="1">
          <mxGeometry x="960" y="160" width="160" height="160" as="geometry" />
        </mxCell>
        <mxCell id="zXH4Re4gvu59KK98Dr5I-56" value="" style="whiteSpace=wrap;html=1;aspect=fixed;fillColor=#B3FF00;strokeColor=default;" parent="1" vertex="1">
          <mxGeometry x="1120" y="160" width="160" height="160" as="geometry" />
        </mxCell>
        <mxCell id="zXH4Re4gvu59KK98Dr5I-57" value="" style="whiteSpace=wrap;html=1;aspect=fixed;fillColor=#FFFF00;strokeColor=default;" parent="1" vertex="1">
          <mxGeometry x="1280" y="160" width="160" height="160" as="geometry" />
        </mxCell>
        <mxCell id="zXH4Re4gvu59KK98Dr5I-58" value="" style="whiteSpace=wrap;html=1;aspect=fixed;fillColor=#FFAD00;strokeColor=default;" parent="1" vertex="1">
          <mxGeometry x="1440" y="160" width="160" height="160" as="geometry" />
        </mxCell>
        <mxCell id="zXH4Re4gvu59KK98Dr5I-59" value="" style="whiteSpace=wrap;html=1;aspect=fixed;fillColor=#FF4F00;strokeColor=default;" parent="1" vertex="1">
          <mxGeometry x="1600" y="160" width="160" height="160" as="geometry" />
        </mxCell>
        <mxCell id="zXH4Re4gvu59KK98Dr5I-60" value="" style="whiteSpace=wrap;html=1;aspect=fixed;fillColor=#FF0000;strokeColor=default;" parent="1" vertex="1">
          <mxGeometry x="1760" y="160" width="160" height="160" as="geometry" />
        </mxCell>
        <mxCell id="zXH4Re4gvu59KK98Dr5I-61" value="" style="whiteSpace=wrap;html=1;aspect=fixed;fillColor=#F60000;strokeColor=default;" parent="1" vertex="1">
          <mxGeometry x="1920" y="160" width="160" height="160" as="geometry" />
        </mxCell>
        <mxCell id="zXH4Re4gvu59KK98Dr5I-62" value="" style="whiteSpace=wrap;html=1;aspect=fixed;fillColor=#C80000;strokeColor=default;" parent="1" vertex="1">
          <mxGeometry x="2080" y="160" width="160" height="160" as="geometry" />
        </mxCell>
        <mxCell id="zXH4Re4gvu59KK98Dr5I-63" value="" style="whiteSpace=wrap;html=1;aspect=fixed;fillColor=#970000;strokeColor=default;" parent="1" vertex="1">
          <mxGeometry x="2240" y="160" width="160" height="160" as="geometry" />
        </mxCell>
        <mxCell id="zXH4Re4gvu59KK98Dr5I-64" value="" style="whiteSpace=wrap;html=1;aspect=fixed;fillColor=#610000;strokeColor=default;" parent="1" vertex="1">
          <mxGeometry x="2400" y="160" width="160" height="160" as="geometry" />
        </mxCell>
        <mxCell id="zXH4Re4gvu59KK98Dr5I-65" value="" style="whiteSpace=wrap;html=1;aspect=fixed;fillColor=#610061;strokeColor=default;" parent="1" vertex="1">
          <mxGeometry y="320" width="160" height="160" as="geometry" />
        </mxCell>
        <mxCell id="zXH4Re4gvu59KK98Dr5I-66" value="" style="whiteSpace=wrap;html=1;aspect=fixed;fillColor=#8200C8;strokeColor=default;" parent="1" vertex="1">
          <mxGeometry x="160" y="320" width="160" height="160" as="geometry" />
        </mxCell>
        <mxCell id="zXH4Re4gvu59KK98Dr5I-67" value="" style="whiteSpace=wrap;html=1;aspect=fixed;fillColor=#3D00FF;strokeColor=default;" parent="1" vertex="1">
          <mxGeometry x="320" y="320" width="160" height="160" as="geometry" />
        </mxCell>
        <mxCell id="zXH4Re4gvu59KK98Dr5I-68" value="" style="whiteSpace=wrap;html=1;aspect=fixed;fillColor=#0061FF;strokeColor=default;" parent="1" vertex="1">
          <mxGeometry x="480" y="320" width="160" height="160" as="geometry" />
        </mxCell>
        <mxCell id="zXH4Re4gvu59KK98Dr5I-69" value="" style="whiteSpace=wrap;html=1;aspect=fixed;fillColor=#00D5FF;strokeColor=default;" parent="1" vertex="1">
          <mxGeometry x="640" y="320" width="160" height="160" as="geometry" />
        </mxCell>
        <mxCell id="zXH4Re4gvu59KK98Dr5I-70" value="" style="whiteSpace=wrap;html=1;aspect=fixed;fillColor=#00FF54;strokeColor=default;" parent="1" vertex="1">
          <mxGeometry x="800" y="320" width="160" height="160" as="geometry" />
        </mxCell>
        <mxCell id="zXH4Re4gvu59KK98Dr5I-71" value="" style="whiteSpace=wrap;html=1;aspect=fixed;fillColor=#5EFF00;strokeColor=default;" parent="1" vertex="1">
          <mxGeometry x="960" y="320" width="160" height="160" as="geometry" />
        </mxCell>
        <mxCell id="zXH4Re4gvu59KK98Dr5I-72" value="" style="whiteSpace=wrap;html=1;aspect=fixed;fillColor=#B3FF00;strokeColor=default;" parent="1" vertex="1">
          <mxGeometry x="1120" y="320" width="160" height="160" as="geometry" />
        </mxCell>
        <mxCell id="zXH4Re4gvu59KK98Dr5I-73" value="" style="whiteSpace=wrap;html=1;aspect=fixed;fillColor=#FFFF00;strokeColor=default;" parent="1" vertex="1">
          <mxGeometry x="1280" y="320" width="160" height="160" as="geometry" />
        </mxCell>
        <mxCell id="zXH4Re4gvu59KK98Dr5I-74" value="" style="whiteSpace=wrap;html=1;aspect=fixed;fillColor=#FFAD00;strokeColor=default;" parent="1" vertex="1">
          <mxGeometry x="1440" y="320" width="160" height="160" as="geometry" />
        </mxCell>
        <mxCell id="zXH4Re4gvu59KK98Dr5I-75" value="" style="whiteSpace=wrap;html=1;aspect=fixed;fillColor=#FF4F00;strokeColor=default;" parent="1" vertex="1">
          <mxGeometry x="1600" y="320" width="160" height="160" as="geometry" />
        </mxCell>
        <mxCell id="zXH4Re4gvu59KK98Dr5I-76" value="" style="whiteSpace=wrap;html=1;aspect=fixed;fillColor=#FF0000;strokeColor=default;" parent="1" vertex="1">
          <mxGeometry x="1760" y="320" width="160" height="160" as="geometry" />
        </mxCell>
        <mxCell id="zXH4Re4gvu59KK98Dr5I-77" value="" style="whiteSpace=wrap;html=1;aspect=fixed;fillColor=#F60000;strokeColor=default;" parent="1" vertex="1">
          <mxGeometry x="1920" y="320" width="160" height="160" as="geometry" />
        </mxCell>
        <mxCell id="zXH4Re4gvu59KK98Dr5I-78" value="" style="whiteSpace=wrap;html=1;aspect=fixed;fillColor=#C80000;strokeColor=default;" parent="1" vertex="1">
          <mxGeometry x="2080" y="320" width="160" height="160" as="geometry" />
        </mxCell>
        <mxCell id="zXH4Re4gvu59KK98Dr5I-79" value="" style="whiteSpace=wrap;html=1;aspect=fixed;fillColor=#970000;strokeColor=default;" parent="1" vertex="1">
          <mxGeometry x="2240" y="320" width="160" height="160" as="geometry" />
        </mxCell>
        <mxCell id="zXH4Re4gvu59KK98Dr5I-80" value="" style="whiteSpace=wrap;html=1;aspect=fixed;fillColor=#610000;strokeColor=default;" parent="1" vertex="1">
          <mxGeometry x="2400" y="320" width="160" height="160" as="geometry" />
        </mxCell>
        <mxCell id="zXH4Re4gvu59KK98Dr5I-81" value="" style="whiteSpace=wrap;html=1;aspect=fixed;fillColor=#610061;strokeColor=default;" parent="1" vertex="1">
          <mxGeometry y="480" width="160" height="160" as="geometry" />
        </mxCell>
        <mxCell id="zXH4Re4gvu59KK98Dr5I-82" value="" style="whiteSpace=wrap;html=1;aspect=fixed;fillColor=#8200C8;strokeColor=default;" parent="1" vertex="1">
          <mxGeometry x="160" y="480" width="160" height="160" as="geometry" />
        </mxCell>
        <mxCell id="zXH4Re4gvu59KK98Dr5I-83" value="" style="whiteSpace=wrap;html=1;aspect=fixed;fillColor=#3D00FF;strokeColor=default;" parent="1" vertex="1">
          <mxGeometry x="320" y="480" width="160" height="160" as="geometry" />
        </mxCell>
        <mxCell id="zXH4Re4gvu59KK98Dr5I-84" value="" style="whiteSpace=wrap;html=1;aspect=fixed;fillColor=#0061FF;strokeColor=default;" parent="1" vertex="1">
          <mxGeometry x="480" y="480" width="160" height="160" as="geometry" />
        </mxCell>
        <mxCell id="zXH4Re4gvu59KK98Dr5I-85" value="" style="whiteSpace=wrap;html=1;aspect=fixed;fillColor=#00D5FF;strokeColor=default;" parent="1" vertex="1">
          <mxGeometry x="640" y="480" width="160" height="160" as="geometry" />
        </mxCell>
        <mxCell id="zXH4Re4gvu59KK98Dr5I-86" value="" style="whiteSpace=wrap;html=1;aspect=fixed;fillColor=#00FF54;strokeColor=default;" parent="1" vertex="1">
          <mxGeometry x="800" y="480" width="160" height="160" as="geometry" />
        </mxCell>
        <mxCell id="zXH4Re4gvu59KK98Dr5I-87" value="" style="whiteSpace=wrap;html=1;aspect=fixed;fillColor=#5EFF00;strokeColor=default;" parent="1" vertex="1">
          <mxGeometry x="960" y="480" width="160" height="160" as="geometry" />
        </mxCell>
        <mxCell id="zXH4Re4gvu59KK98Dr5I-88" value="" style="whiteSpace=wrap;html=1;aspect=fixed;fillColor=#B3FF00;strokeColor=default;" parent="1" vertex="1">
          <mxGeometry x="1120" y="480" width="160" height="160" as="geometry" />
        </mxCell>
        <mxCell id="zXH4Re4gvu59KK98Dr5I-89" value="" style="whiteSpace=wrap;html=1;aspect=fixed;fillColor=#FFFF00;strokeColor=default;" parent="1" vertex="1">
          <mxGeometry x="1280" y="480" width="160" height="160" as="geometry" />
        </mxCell>
        <mxCell id="zXH4Re4gvu59KK98Dr5I-90" value="" style="whiteSpace=wrap;html=1;aspect=fixed;fillColor=#FFAD00;strokeColor=default;" parent="1" vertex="1">
          <mxGeometry x="1440" y="480" width="160" height="160" as="geometry" />
        </mxCell>
        <mxCell id="zXH4Re4gvu59KK98Dr5I-91" value="" style="whiteSpace=wrap;html=1;aspect=fixed;fillColor=#FF4F00;strokeColor=default;" parent="1" vertex="1">
          <mxGeometry x="1600" y="480" width="160" height="160" as="geometry" />
        </mxCell>
        <mxCell id="zXH4Re4gvu59KK98Dr5I-92" value="" style="whiteSpace=wrap;html=1;aspect=fixed;fillColor=#FF0000;strokeColor=default;" parent="1" vertex="1">
          <mxGeometry x="1760" y="480" width="160" height="160" as="geometry" />
        </mxCell>
        <mxCell id="zXH4Re4gvu59KK98Dr5I-93" value="" style="whiteSpace=wrap;html=1;aspect=fixed;fillColor=#F60000;strokeColor=default;" parent="1" vertex="1">
          <mxGeometry x="1920" y="480" width="160" height="160" as="geometry" />
        </mxCell>
        <mxCell id="zXH4Re4gvu59KK98Dr5I-94" value="" style="whiteSpace=wrap;html=1;aspect=fixed;fillColor=#C80000;strokeColor=default;" parent="1" vertex="1">
          <mxGeometry x="2080" y="480" width="160" height="160" as="geometry" />
        </mxCell>
        <mxCell id="zXH4Re4gvu59KK98Dr5I-95" value="" style="whiteSpace=wrap;html=1;aspect=fixed;fillColor=#970000;strokeColor=default;" parent="1" vertex="1">
          <mxGeometry x="2240" y="480" width="160" height="160" as="geometry" />
        </mxCell>
        <mxCell id="zXH4Re4gvu59KK98Dr5I-96" value="" style="whiteSpace=wrap;html=1;aspect=fixed;fillColor=#610000;strokeColor=default;" parent="1" vertex="1">
          <mxGeometry x="2400" y="480" width="160" height="160" as="geometry" />
        </mxCell>
        <mxCell id="zXH4Re4gvu59KK98Dr5I-97" value="" style="whiteSpace=wrap;html=1;aspect=fixed;fillColor=#610061;strokeColor=default;" parent="1" vertex="1">
          <mxGeometry y="640" width="160" height="160" as="geometry" />
        </mxCell>
        <mxCell id="zXH4Re4gvu59KK98Dr5I-98" value="" style="whiteSpace=wrap;html=1;aspect=fixed;fillColor=#8200C8;strokeColor=default;" parent="1" vertex="1">
          <mxGeometry x="160" y="640" width="160" height="160" as="geometry" />
        </mxCell>
        <mxCell id="zXH4Re4gvu59KK98Dr5I-99" value="" style="whiteSpace=wrap;html=1;aspect=fixed;fillColor=#3D00FF;strokeColor=default;" parent="1" vertex="1">
          <mxGeometry x="320" y="640" width="160" height="160" as="geometry" />
        </mxCell>
        <mxCell id="zXH4Re4gvu59KK98Dr5I-100" value="" style="whiteSpace=wrap;html=1;aspect=fixed;fillColor=#0061FF;strokeColor=default;" parent="1" vertex="1">
          <mxGeometry x="480" y="640" width="160" height="160" as="geometry" />
        </mxCell>
        <mxCell id="zXH4Re4gvu59KK98Dr5I-101" value="" style="whiteSpace=wrap;html=1;aspect=fixed;fillColor=#00D5FF;strokeColor=default;" parent="1" vertex="1">
          <mxGeometry x="640" y="640" width="160" height="160" as="geometry" />
        </mxCell>
        <mxCell id="zXH4Re4gvu59KK98Dr5I-102" value="" style="whiteSpace=wrap;html=1;aspect=fixed;fillColor=#00FF54;strokeColor=default;" parent="1" vertex="1">
          <mxGeometry x="800" y="640" width="160" height="160" as="geometry" />
        </mxCell>
        <mxCell id="zXH4Re4gvu59KK98Dr5I-103" value="" style="whiteSpace=wrap;html=1;aspect=fixed;fillColor=#5EFF00;strokeColor=default;" parent="1" vertex="1">
          <mxGeometry x="960" y="640" width="160" height="160" as="geometry" />
        </mxCell>
        <mxCell id="zXH4Re4gvu59KK98Dr5I-104" value="" style="whiteSpace=wrap;html=1;aspect=fixed;fillColor=#B3FF00;strokeColor=default;" parent="1" vertex="1">
          <mxGeometry x="1120" y="640" width="160" height="160" as="geometry" />
        </mxCell>
        <mxCell id="zXH4Re4gvu59KK98Dr5I-105" value="" style="whiteSpace=wrap;html=1;aspect=fixed;fillColor=#FFFF00;strokeColor=default;" parent="1" vertex="1">
          <mxGeometry x="1280" y="640" width="160" height="160" as="geometry" />
        </mxCell>
        <mxCell id="zXH4Re4gvu59KK98Dr5I-106" value="" style="whiteSpace=wrap;html=1;aspect=fixed;fillColor=#FFAD00;strokeColor=default;" parent="1" vertex="1">
          <mxGeometry x="1440" y="640" width="160" height="160" as="geometry" />
        </mxCell>
        <mxCell id="zXH4Re4gvu59KK98Dr5I-107" value="" style="whiteSpace=wrap;html=1;aspect=fixed;fillColor=#FF4F00;strokeColor=default;" parent="1" vertex="1">
          <mxGeometry x="1600" y="640" width="160" height="160" as="geometry" />
        </mxCell>
        <mxCell id="zXH4Re4gvu59KK98Dr5I-108" value="" style="whiteSpace=wrap;html=1;aspect=fixed;fillColor=#FF0000;strokeColor=default;" parent="1" vertex="1">
          <mxGeometry x="1760" y="640" width="160" height="160" as="geometry" />
        </mxCell>
        <mxCell id="zXH4Re4gvu59KK98Dr5I-109" value="" style="whiteSpace=wrap;html=1;aspect=fixed;fillColor=#F60000;strokeColor=default;" parent="1" vertex="1">
          <mxGeometry x="1920" y="640" width="160" height="160" as="geometry" />
        </mxCell>
        <mxCell id="zXH4Re4gvu59KK98Dr5I-110" value="" style="whiteSpace=wrap;html=1;aspect=fixed;fillColor=#C80000;strokeColor=default;" parent="1" vertex="1">
          <mxGeometry x="2080" y="640" width="160" height="160" as="geometry" />
        </mxCell>
        <mxCell id="zXH4Re4gvu59KK98Dr5I-111" value="" style="whiteSpace=wrap;html=1;aspect=fixed;fillColor=#970000;strokeColor=default;" parent="1" vertex="1">
          <mxGeometry x="2240" y="640" width="160" height="160" as="geometry" />
        </mxCell>
        <mxCell id="zXH4Re4gvu59KK98Dr5I-112" value="" style="whiteSpace=wrap;html=1;aspect=fixed;fillColor=#610000;strokeColor=default;" parent="1" vertex="1">
          <mxGeometry x="2400" y="640" width="160" height="160" as="geometry" />
        </mxCell>
        <mxCell id="zXH4Re4gvu59KK98Dr5I-113" value="" style="whiteSpace=wrap;html=1;aspect=fixed;fillColor=#610061;strokeColor=default;" parent="1" vertex="1">
          <mxGeometry y="800" width="160" height="160" as="geometry" />
        </mxCell>
        <mxCell id="zXH4Re4gvu59KK98Dr5I-114" value="" style="whiteSpace=wrap;html=1;aspect=fixed;fillColor=#8200C8;strokeColor=default;" parent="1" vertex="1">
          <mxGeometry x="160" y="800" width="160" height="160" as="geometry" />
        </mxCell>
        <mxCell id="zXH4Re4gvu59KK98Dr5I-115" value="" style="whiteSpace=wrap;html=1;aspect=fixed;fillColor=#3D00FF;strokeColor=default;" parent="1" vertex="1">
          <mxGeometry x="320" y="800" width="160" height="160" as="geometry" />
        </mxCell>
        <mxCell id="zXH4Re4gvu59KK98Dr5I-116" value="" style="whiteSpace=wrap;html=1;aspect=fixed;fillColor=#0061FF;strokeColor=default;" parent="1" vertex="1">
          <mxGeometry x="480" y="800" width="160" height="160" as="geometry" />
        </mxCell>
        <mxCell id="zXH4Re4gvu59KK98Dr5I-117" value="" style="whiteSpace=wrap;html=1;aspect=fixed;fillColor=#00D5FF;strokeColor=default;" parent="1" vertex="1">
          <mxGeometry x="640" y="800" width="160" height="160" as="geometry" />
        </mxCell>
        <mxCell id="zXH4Re4gvu59KK98Dr5I-118" value="" style="whiteSpace=wrap;html=1;aspect=fixed;fillColor=#00FF54;strokeColor=default;" parent="1" vertex="1">
          <mxGeometry x="800" y="800" width="160" height="160" as="geometry" />
        </mxCell>
        <mxCell id="zXH4Re4gvu59KK98Dr5I-119" value="" style="whiteSpace=wrap;html=1;aspect=fixed;fillColor=#5EFF00;strokeColor=default;" parent="1" vertex="1">
          <mxGeometry x="960" y="800" width="160" height="160" as="geometry" />
        </mxCell>
        <mxCell id="zXH4Re4gvu59KK98Dr5I-120" value="" style="whiteSpace=wrap;html=1;aspect=fixed;fillColor=#B3FF00;strokeColor=default;" parent="1" vertex="1">
          <mxGeometry x="1120" y="800" width="160" height="160" as="geometry" />
        </mxCell>
        <mxCell id="zXH4Re4gvu59KK98Dr5I-121" value="" style="whiteSpace=wrap;html=1;aspect=fixed;fillColor=#FFFF00;strokeColor=default;" parent="1" vertex="1">
          <mxGeometry x="1280" y="800" width="160" height="160" as="geometry" />
        </mxCell>
        <mxCell id="zXH4Re4gvu59KK98Dr5I-122" value="" style="whiteSpace=wrap;html=1;aspect=fixed;fillColor=#FFAD00;strokeColor=default;" parent="1" vertex="1">
          <mxGeometry x="1440" y="800" width="160" height="160" as="geometry" />
        </mxCell>
        <mxCell id="zXH4Re4gvu59KK98Dr5I-123" value="" style="whiteSpace=wrap;html=1;aspect=fixed;fillColor=#FF4F00;strokeColor=default;" parent="1" vertex="1">
          <mxGeometry x="1600" y="800" width="160" height="160" as="geometry" />
        </mxCell>
        <mxCell id="zXH4Re4gvu59KK98Dr5I-124" value="" style="whiteSpace=wrap;html=1;aspect=fixed;fillColor=#FF0000;strokeColor=default;" parent="1" vertex="1">
          <mxGeometry x="1760" y="800" width="160" height="160" as="geometry" />
        </mxCell>
        <mxCell id="zXH4Re4gvu59KK98Dr5I-125" value="" style="whiteSpace=wrap;html=1;aspect=fixed;fillColor=#F60000;strokeColor=default;" parent="1" vertex="1">
          <mxGeometry x="1920" y="800" width="160" height="160" as="geometry" />
        </mxCell>
        <mxCell id="zXH4Re4gvu59KK98Dr5I-126" value="" style="whiteSpace=wrap;html=1;aspect=fixed;fillColor=#C80000;strokeColor=default;" parent="1" vertex="1">
          <mxGeometry x="2080" y="800" width="160" height="160" as="geometry" />
        </mxCell>
        <mxCell id="zXH4Re4gvu59KK98Dr5I-127" value="" style="whiteSpace=wrap;html=1;aspect=fixed;fillColor=#970000;strokeColor=default;" parent="1" vertex="1">
          <mxGeometry x="2240" y="800" width="160" height="160" as="geometry" />
        </mxCell>
        <mxCell id="zXH4Re4gvu59KK98Dr5I-128" value="" style="whiteSpace=wrap;html=1;aspect=fixed;fillColor=#610000;strokeColor=default;" parent="1" vertex="1">
          <mxGeometry x="2400" y="800" width="160" height="160" as="geometry" />
        </mxCell>
        <mxCell id="zXH4Re4gvu59KK98Dr5I-129" value="" style="whiteSpace=wrap;html=1;aspect=fixed;fillColor=#610061;strokeColor=default;" parent="1" vertex="1">
          <mxGeometry y="960" width="160" height="160" as="geometry" />
        </mxCell>
        <mxCell id="zXH4Re4gvu59KK98Dr5I-130" value="" style="whiteSpace=wrap;html=1;aspect=fixed;fillColor=#8200C8;strokeColor=default;" parent="1" vertex="1">
          <mxGeometry x="160" y="960" width="160" height="160" as="geometry" />
        </mxCell>
        <mxCell id="zXH4Re4gvu59KK98Dr5I-131" value="" style="whiteSpace=wrap;html=1;aspect=fixed;fillColor=#3D00FF;strokeColor=default;" parent="1" vertex="1">
          <mxGeometry x="320" y="960" width="160" height="160" as="geometry" />
        </mxCell>
        <mxCell id="zXH4Re4gvu59KK98Dr5I-132" value="" style="whiteSpace=wrap;html=1;aspect=fixed;fillColor=#0061FF;strokeColor=default;" parent="1" vertex="1">
          <mxGeometry x="480" y="960" width="160" height="160" as="geometry" />
        </mxCell>
        <mxCell id="zXH4Re4gvu59KK98Dr5I-133" value="" style="whiteSpace=wrap;html=1;aspect=fixed;fillColor=#00D5FF;strokeColor=default;" parent="1" vertex="1">
          <mxGeometry x="640" y="960" width="160" height="160" as="geometry" />
        </mxCell>
        <mxCell id="zXH4Re4gvu59KK98Dr5I-134" value="" style="whiteSpace=wrap;html=1;aspect=fixed;fillColor=#00FF54;strokeColor=default;" parent="1" vertex="1">
          <mxGeometry x="800" y="960" width="160" height="160" as="geometry" />
        </mxCell>
        <mxCell id="zXH4Re4gvu59KK98Dr5I-135" value="" style="whiteSpace=wrap;html=1;aspect=fixed;fillColor=#5EFF00;strokeColor=default;" parent="1" vertex="1">
          <mxGeometry x="960" y="960" width="160" height="160" as="geometry" />
        </mxCell>
        <mxCell id="zXH4Re4gvu59KK98Dr5I-136" value="" style="whiteSpace=wrap;html=1;aspect=fixed;fillColor=#B3FF00;strokeColor=default;" parent="1" vertex="1">
          <mxGeometry x="1120" y="960" width="160" height="160" as="geometry" />
        </mxCell>
        <mxCell id="zXH4Re4gvu59KK98Dr5I-137" value="" style="whiteSpace=wrap;html=1;aspect=fixed;fillColor=#FFFF00;strokeColor=default;" parent="1" vertex="1">
          <mxGeometry x="1280" y="960" width="160" height="160" as="geometry" />
        </mxCell>
        <mxCell id="zXH4Re4gvu59KK98Dr5I-138" value="" style="whiteSpace=wrap;html=1;aspect=fixed;fillColor=#FFAD00;strokeColor=default;" parent="1" vertex="1">
          <mxGeometry x="1440" y="960" width="160" height="160" as="geometry" />
        </mxCell>
        <mxCell id="zXH4Re4gvu59KK98Dr5I-139" value="" style="whiteSpace=wrap;html=1;aspect=fixed;fillColor=#FF4F00;strokeColor=default;" parent="1" vertex="1">
          <mxGeometry x="1600" y="960" width="160" height="160" as="geometry" />
        </mxCell>
        <mxCell id="zXH4Re4gvu59KK98Dr5I-140" value="" style="whiteSpace=wrap;html=1;aspect=fixed;fillColor=#FF0000;strokeColor=default;" parent="1" vertex="1">
          <mxGeometry x="1760" y="960" width="160" height="160" as="geometry" />
        </mxCell>
        <mxCell id="zXH4Re4gvu59KK98Dr5I-141" value="" style="whiteSpace=wrap;html=1;aspect=fixed;fillColor=#F60000;strokeColor=default;" parent="1" vertex="1">
          <mxGeometry x="1920" y="960" width="160" height="160" as="geometry" />
        </mxCell>
        <mxCell id="zXH4Re4gvu59KK98Dr5I-142" value="" style="whiteSpace=wrap;html=1;aspect=fixed;fillColor=#C80000;strokeColor=default;" parent="1" vertex="1">
          <mxGeometry x="2080" y="960" width="160" height="160" as="geometry" />
        </mxCell>
        <mxCell id="zXH4Re4gvu59KK98Dr5I-143" value="" style="whiteSpace=wrap;html=1;aspect=fixed;fillColor=#970000;strokeColor=default;" parent="1" vertex="1">
          <mxGeometry x="2240" y="960" width="160" height="160" as="geometry" />
        </mxCell>
        <mxCell id="zXH4Re4gvu59KK98Dr5I-144" value="" style="whiteSpace=wrap;html=1;aspect=fixed;fillColor=#610000;strokeColor=default;" parent="1" vertex="1">
          <mxGeometry x="2400" y="960" width="160" height="160" as="geometry" />
        </mxCell>
        <mxCell id="zXH4Re4gvu59KK98Dr5I-145" value="" style="whiteSpace=wrap;html=1;aspect=fixed;fillColor=#610061;strokeColor=default;" parent="1" vertex="1">
          <mxGeometry y="1120" width="160" height="160" as="geometry" />
        </mxCell>
        <mxCell id="zXH4Re4gvu59KK98Dr5I-146" value="" style="whiteSpace=wrap;html=1;aspect=fixed;fillColor=#8200C8;strokeColor=default;" parent="1" vertex="1">
          <mxGeometry x="160" y="1120" width="160" height="160" as="geometry" />
        </mxCell>
        <mxCell id="zXH4Re4gvu59KK98Dr5I-147" value="" style="whiteSpace=wrap;html=1;aspect=fixed;fillColor=#3D00FF;strokeColor=default;" parent="1" vertex="1">
          <mxGeometry x="320" y="1120" width="160" height="160" as="geometry" />
        </mxCell>
        <mxCell id="zXH4Re4gvu59KK98Dr5I-148" value="" style="whiteSpace=wrap;html=1;aspect=fixed;fillColor=#0061FF;strokeColor=default;" parent="1" vertex="1">
          <mxGeometry x="480" y="1120" width="160" height="160" as="geometry" />
        </mxCell>
        <mxCell id="zXH4Re4gvu59KK98Dr5I-149" value="" style="whiteSpace=wrap;html=1;aspect=fixed;fillColor=#00D5FF;strokeColor=default;" parent="1" vertex="1">
          <mxGeometry x="640" y="1120" width="160" height="160" as="geometry" />
        </mxCell>
        <mxCell id="zXH4Re4gvu59KK98Dr5I-150" value="" style="whiteSpace=wrap;html=1;aspect=fixed;fillColor=#00FF54;strokeColor=default;" parent="1" vertex="1">
          <mxGeometry x="800" y="1120" width="160" height="160" as="geometry" />
        </mxCell>
        <mxCell id="zXH4Re4gvu59KK98Dr5I-151" value="" style="whiteSpace=wrap;html=1;aspect=fixed;fillColor=#5EFF00;strokeColor=default;" parent="1" vertex="1">
          <mxGeometry x="960" y="1120" width="160" height="160" as="geometry" />
        </mxCell>
        <mxCell id="zXH4Re4gvu59KK98Dr5I-152" value="" style="whiteSpace=wrap;html=1;aspect=fixed;fillColor=#B3FF00;strokeColor=default;" parent="1" vertex="1">
          <mxGeometry x="1120" y="1120" width="160" height="160" as="geometry" />
        </mxCell>
        <mxCell id="zXH4Re4gvu59KK98Dr5I-153" value="" style="whiteSpace=wrap;html=1;aspect=fixed;fillColor=#FFFF00;strokeColor=default;" parent="1" vertex="1">
          <mxGeometry x="1280" y="1120" width="160" height="160" as="geometry" />
        </mxCell>
        <mxCell id="zXH4Re4gvu59KK98Dr5I-154" value="" style="whiteSpace=wrap;html=1;aspect=fixed;fillColor=#FFAD00;strokeColor=default;" parent="1" vertex="1">
          <mxGeometry x="1440" y="1120" width="160" height="160" as="geometry" />
        </mxCell>
        <mxCell id="zXH4Re4gvu59KK98Dr5I-155" value="" style="whiteSpace=wrap;html=1;aspect=fixed;fillColor=#FF4F00;strokeColor=default;" parent="1" vertex="1">
          <mxGeometry x="1600" y="1120" width="160" height="160" as="geometry" />
        </mxCell>
        <mxCell id="zXH4Re4gvu59KK98Dr5I-156" value="" style="whiteSpace=wrap;html=1;aspect=fixed;fillColor=#FF0000;strokeColor=default;" parent="1" vertex="1">
          <mxGeometry x="1760" y="1120" width="160" height="160" as="geometry" />
        </mxCell>
        <mxCell id="zXH4Re4gvu59KK98Dr5I-157" value="" style="whiteSpace=wrap;html=1;aspect=fixed;fillColor=#F60000;strokeColor=default;" parent="1" vertex="1">
          <mxGeometry x="1920" y="1120" width="160" height="160" as="geometry" />
        </mxCell>
        <mxCell id="zXH4Re4gvu59KK98Dr5I-158" value="" style="whiteSpace=wrap;html=1;aspect=fixed;fillColor=#C80000;strokeColor=default;" parent="1" vertex="1">
          <mxGeometry x="2080" y="1120" width="160" height="160" as="geometry" />
        </mxCell>
        <mxCell id="zXH4Re4gvu59KK98Dr5I-159" value="" style="whiteSpace=wrap;html=1;aspect=fixed;fillColor=#970000;strokeColor=default;" parent="1" vertex="1">
          <mxGeometry x="2240" y="1120" width="160" height="160" as="geometry" />
        </mxCell>
        <mxCell id="zXH4Re4gvu59KK98Dr5I-160" value="" style="whiteSpace=wrap;html=1;aspect=fixed;fillColor=#610000;strokeColor=default;" parent="1" vertex="1">
          <mxGeometry x="2400" y="1120" width="160" height="160" as="geometry" />
        </mxCell>
        <mxCell id="zXH4Re4gvu59KK98Dr5I-161" value="" style="whiteSpace=wrap;html=1;aspect=fixed;fillColor=#610061;strokeColor=default;" parent="1" vertex="1">
          <mxGeometry y="1280" width="160" height="160" as="geometry" />
        </mxCell>
        <mxCell id="zXH4Re4gvu59KK98Dr5I-162" value="" style="whiteSpace=wrap;html=1;aspect=fixed;fillColor=#8200C8;strokeColor=default;" parent="1" vertex="1">
          <mxGeometry x="160" y="1280" width="160" height="160" as="geometry" />
        </mxCell>
        <mxCell id="zXH4Re4gvu59KK98Dr5I-163" value="" style="whiteSpace=wrap;html=1;aspect=fixed;fillColor=#3D00FF;strokeColor=default;" parent="1" vertex="1">
          <mxGeometry x="320" y="1280" width="160" height="160" as="geometry" />
        </mxCell>
        <mxCell id="zXH4Re4gvu59KK98Dr5I-164" value="" style="whiteSpace=wrap;html=1;aspect=fixed;fillColor=#0061FF;strokeColor=default;" parent="1" vertex="1">
          <mxGeometry x="480" y="1280" width="160" height="160" as="geometry" />
        </mxCell>
        <mxCell id="zXH4Re4gvu59KK98Dr5I-165" value="" style="whiteSpace=wrap;html=1;aspect=fixed;fillColor=#00D5FF;strokeColor=default;" parent="1" vertex="1">
          <mxGeometry x="640" y="1280" width="160" height="160" as="geometry" />
        </mxCell>
        <mxCell id="zXH4Re4gvu59KK98Dr5I-166" value="" style="whiteSpace=wrap;html=1;aspect=fixed;fillColor=#00FF54;strokeColor=default;" parent="1" vertex="1">
          <mxGeometry x="800" y="1280" width="160" height="160" as="geometry" />
        </mxCell>
        <mxCell id="zXH4Re4gvu59KK98Dr5I-167" value="" style="whiteSpace=wrap;html=1;aspect=fixed;fillColor=#5EFF00;strokeColor=default;" parent="1" vertex="1">
          <mxGeometry x="960" y="1280" width="160" height="160" as="geometry" />
        </mxCell>
        <mxCell id="zXH4Re4gvu59KK98Dr5I-168" value="" style="whiteSpace=wrap;html=1;aspect=fixed;fillColor=#B3FF00;strokeColor=default;" parent="1" vertex="1">
          <mxGeometry x="1120" y="1280" width="160" height="160" as="geometry" />
        </mxCell>
        <mxCell id="zXH4Re4gvu59KK98Dr5I-169" value="" style="whiteSpace=wrap;html=1;aspect=fixed;fillColor=#FFFF00;strokeColor=default;" parent="1" vertex="1">
          <mxGeometry x="1280" y="1280" width="160" height="160" as="geometry" />
        </mxCell>
        <mxCell id="zXH4Re4gvu59KK98Dr5I-170" value="" style="whiteSpace=wrap;html=1;aspect=fixed;fillColor=#FFAD00;strokeColor=default;" parent="1" vertex="1">
          <mxGeometry x="1440" y="1280" width="160" height="160" as="geometry" />
        </mxCell>
        <mxCell id="zXH4Re4gvu59KK98Dr5I-171" value="" style="whiteSpace=wrap;html=1;aspect=fixed;fillColor=#FF4F00;strokeColor=default;" parent="1" vertex="1">
          <mxGeometry x="1600" y="1280" width="160" height="160" as="geometry" />
        </mxCell>
        <mxCell id="zXH4Re4gvu59KK98Dr5I-172" value="" style="whiteSpace=wrap;html=1;aspect=fixed;fillColor=#FF0000;strokeColor=default;" parent="1" vertex="1">
          <mxGeometry x="1760" y="1280" width="160" height="160" as="geometry" />
        </mxCell>
        <mxCell id="zXH4Re4gvu59KK98Dr5I-173" value="" style="whiteSpace=wrap;html=1;aspect=fixed;fillColor=#F60000;strokeColor=default;" parent="1" vertex="1">
          <mxGeometry x="1920" y="1280" width="160" height="160" as="geometry" />
        </mxCell>
        <mxCell id="zXH4Re4gvu59KK98Dr5I-174" value="" style="whiteSpace=wrap;html=1;aspect=fixed;fillColor=#C80000;strokeColor=default;" parent="1" vertex="1">
          <mxGeometry x="2080" y="1280" width="160" height="160" as="geometry" />
        </mxCell>
        <mxCell id="zXH4Re4gvu59KK98Dr5I-175" value="" style="whiteSpace=wrap;html=1;aspect=fixed;fillColor=#970000;strokeColor=default;" parent="1" vertex="1">
          <mxGeometry x="2240" y="1280" width="160" height="160" as="geometry" />
        </mxCell>
        <mxCell id="zXH4Re4gvu59KK98Dr5I-176" value="" style="whiteSpace=wrap;html=1;aspect=fixed;fillColor=#610000;strokeColor=default;" parent="1" vertex="1">
          <mxGeometry x="2400" y="1280" width="160" height="160" as="geometry" />
        </mxCell>
        <mxCell id="zXH4Re4gvu59KK98Dr5I-177" value="" style="whiteSpace=wrap;html=1;aspect=fixed;fillColor=#610061;strokeColor=default;" parent="1" vertex="1">
          <mxGeometry y="1440" width="160" height="160" as="geometry" />
        </mxCell>
        <mxCell id="zXH4Re4gvu59KK98Dr5I-178" value="" style="whiteSpace=wrap;html=1;aspect=fixed;fillColor=#8200C8;strokeColor=default;" parent="1" vertex="1">
          <mxGeometry x="160" y="1440" width="160" height="160" as="geometry" />
        </mxCell>
        <mxCell id="zXH4Re4gvu59KK98Dr5I-179" value="" style="whiteSpace=wrap;html=1;aspect=fixed;fillColor=#3D00FF;strokeColor=default;" parent="1" vertex="1">
          <mxGeometry x="320" y="1440" width="160" height="160" as="geometry" />
        </mxCell>
        <mxCell id="zXH4Re4gvu59KK98Dr5I-180" value="" style="whiteSpace=wrap;html=1;aspect=fixed;fillColor=#0061FF;strokeColor=default;" parent="1" vertex="1">
          <mxGeometry x="480" y="1440" width="160" height="160" as="geometry" />
        </mxCell>
        <mxCell id="zXH4Re4gvu59KK98Dr5I-181" value="" style="whiteSpace=wrap;html=1;aspect=fixed;fillColor=#00D5FF;strokeColor=default;" parent="1" vertex="1">
          <mxGeometry x="640" y="1440" width="160" height="160" as="geometry" />
        </mxCell>
        <mxCell id="zXH4Re4gvu59KK98Dr5I-182" value="" style="whiteSpace=wrap;html=1;aspect=fixed;fillColor=#00FF54;strokeColor=default;" parent="1" vertex="1">
          <mxGeometry x="800" y="1440" width="160" height="160" as="geometry" />
        </mxCell>
        <mxCell id="zXH4Re4gvu59KK98Dr5I-183" value="" style="whiteSpace=wrap;html=1;aspect=fixed;fillColor=#5EFF00;strokeColor=default;" parent="1" vertex="1">
          <mxGeometry x="960" y="1440" width="160" height="160" as="geometry" />
        </mxCell>
        <mxCell id="zXH4Re4gvu59KK98Dr5I-184" value="" style="whiteSpace=wrap;html=1;aspect=fixed;fillColor=#B3FF00;strokeColor=default;" parent="1" vertex="1">
          <mxGeometry x="1120" y="1440" width="160" height="160" as="geometry" />
        </mxCell>
        <mxCell id="zXH4Re4gvu59KK98Dr5I-185" value="" style="whiteSpace=wrap;html=1;aspect=fixed;fillColor=#FFFF00;strokeColor=default;" parent="1" vertex="1">
          <mxGeometry x="1280" y="1440" width="160" height="160" as="geometry" />
        </mxCell>
        <mxCell id="zXH4Re4gvu59KK98Dr5I-186" value="" style="whiteSpace=wrap;html=1;aspect=fixed;fillColor=#FFAD00;strokeColor=default;" parent="1" vertex="1">
          <mxGeometry x="1440" y="1440" width="160" height="160" as="geometry" />
        </mxCell>
        <mxCell id="zXH4Re4gvu59KK98Dr5I-187" value="" style="whiteSpace=wrap;html=1;aspect=fixed;fillColor=#FF4F00;strokeColor=default;" parent="1" vertex="1">
          <mxGeometry x="1600" y="1440" width="160" height="160" as="geometry" />
        </mxCell>
        <mxCell id="zXH4Re4gvu59KK98Dr5I-188" value="" style="whiteSpace=wrap;html=1;aspect=fixed;fillColor=#FF0000;strokeColor=default;" parent="1" vertex="1">
          <mxGeometry x="1760" y="1440" width="160" height="160" as="geometry" />
        </mxCell>
        <mxCell id="zXH4Re4gvu59KK98Dr5I-189" value="" style="whiteSpace=wrap;html=1;aspect=fixed;fillColor=#F60000;strokeColor=default;" parent="1" vertex="1">
          <mxGeometry x="1920" y="1440" width="160" height="160" as="geometry" />
        </mxCell>
        <mxCell id="zXH4Re4gvu59KK98Dr5I-190" value="" style="whiteSpace=wrap;html=1;aspect=fixed;fillColor=#C80000;strokeColor=default;" parent="1" vertex="1">
          <mxGeometry x="2080" y="1440" width="160" height="160" as="geometry" />
        </mxCell>
        <mxCell id="zXH4Re4gvu59KK98Dr5I-191" value="" style="whiteSpace=wrap;html=1;aspect=fixed;fillColor=#970000;strokeColor=default;" parent="1" vertex="1">
          <mxGeometry x="2240" y="1440" width="160" height="160" as="geometry" />
        </mxCell>
        <mxCell id="zXH4Re4gvu59KK98Dr5I-192" value="" style="whiteSpace=wrap;html=1;aspect=fixed;fillColor=#610000;strokeColor=default;" parent="1" vertex="1">
          <mxGeometry x="2400" y="1440" width="160" height="160" as="geometry" />
        </mxCell>
        <mxCell id="zXH4Re4gvu59KK98Dr5I-193" value="" style="whiteSpace=wrap;html=1;aspect=fixed;fillColor=#610061;strokeColor=default;" parent="1" vertex="1">
          <mxGeometry y="1600" width="160" height="160" as="geometry" />
        </mxCell>
        <mxCell id="zXH4Re4gvu59KK98Dr5I-194" value="" style="whiteSpace=wrap;html=1;aspect=fixed;fillColor=#8200C8;strokeColor=default;" parent="1" vertex="1">
          <mxGeometry x="160" y="1600" width="160" height="160" as="geometry" />
        </mxCell>
        <mxCell id="zXH4Re4gvu59KK98Dr5I-195" value="" style="whiteSpace=wrap;html=1;aspect=fixed;fillColor=#3D00FF;strokeColor=default;" parent="1" vertex="1">
          <mxGeometry x="320" y="1600" width="160" height="160" as="geometry" />
        </mxCell>
        <mxCell id="zXH4Re4gvu59KK98Dr5I-196" value="" style="whiteSpace=wrap;html=1;aspect=fixed;fillColor=#0061FF;strokeColor=default;" parent="1" vertex="1">
          <mxGeometry x="480" y="1600" width="160" height="160" as="geometry" />
        </mxCell>
        <mxCell id="zXH4Re4gvu59KK98Dr5I-197" value="" style="whiteSpace=wrap;html=1;aspect=fixed;fillColor=#00D5FF;strokeColor=default;" parent="1" vertex="1">
          <mxGeometry x="640" y="1600" width="160" height="160" as="geometry" />
        </mxCell>
        <mxCell id="zXH4Re4gvu59KK98Dr5I-198" value="" style="whiteSpace=wrap;html=1;aspect=fixed;fillColor=#00FF54;strokeColor=default;" parent="1" vertex="1">
          <mxGeometry x="800" y="1600" width="160" height="160" as="geometry" />
        </mxCell>
        <mxCell id="zXH4Re4gvu59KK98Dr5I-199" value="" style="whiteSpace=wrap;html=1;aspect=fixed;fillColor=#5EFF00;strokeColor=default;" parent="1" vertex="1">
          <mxGeometry x="960" y="1600" width="160" height="160" as="geometry" />
        </mxCell>
        <mxCell id="zXH4Re4gvu59KK98Dr5I-200" value="" style="whiteSpace=wrap;html=1;aspect=fixed;fillColor=#B3FF00;strokeColor=default;" parent="1" vertex="1">
          <mxGeometry x="1120" y="1600" width="160" height="160" as="geometry" />
        </mxCell>
        <mxCell id="zXH4Re4gvu59KK98Dr5I-201" value="" style="whiteSpace=wrap;html=1;aspect=fixed;fillColor=#FFFF00;strokeColor=default;" parent="1" vertex="1">
          <mxGeometry x="1280" y="1600" width="160" height="160" as="geometry" />
        </mxCell>
        <mxCell id="zXH4Re4gvu59KK98Dr5I-202" value="" style="whiteSpace=wrap;html=1;aspect=fixed;fillColor=#FFAD00;strokeColor=default;" parent="1" vertex="1">
          <mxGeometry x="1440" y="1600" width="160" height="160" as="geometry" />
        </mxCell>
        <mxCell id="zXH4Re4gvu59KK98Dr5I-203" value="" style="whiteSpace=wrap;html=1;aspect=fixed;fillColor=#FF4F00;strokeColor=default;" parent="1" vertex="1">
          <mxGeometry x="1600" y="1600" width="160" height="160" as="geometry" />
        </mxCell>
        <mxCell id="zXH4Re4gvu59KK98Dr5I-204" value="" style="whiteSpace=wrap;html=1;aspect=fixed;fillColor=#FF0000;strokeColor=default;" parent="1" vertex="1">
          <mxGeometry x="1760" y="1600" width="160" height="160" as="geometry" />
        </mxCell>
        <mxCell id="zXH4Re4gvu59KK98Dr5I-205" value="" style="whiteSpace=wrap;html=1;aspect=fixed;fillColor=#F60000;strokeColor=default;" parent="1" vertex="1">
          <mxGeometry x="1920" y="1600" width="160" height="160" as="geometry" />
        </mxCell>
        <mxCell id="zXH4Re4gvu59KK98Dr5I-206" value="" style="whiteSpace=wrap;html=1;aspect=fixed;fillColor=#C80000;strokeColor=default;" parent="1" vertex="1">
          <mxGeometry x="2080" y="1600" width="160" height="160" as="geometry" />
        </mxCell>
        <mxCell id="zXH4Re4gvu59KK98Dr5I-207" value="" style="whiteSpace=wrap;html=1;aspect=fixed;fillColor=#970000;strokeColor=default;" parent="1" vertex="1">
          <mxGeometry x="2240" y="1600" width="160" height="160" as="geometry" />
        </mxCell>
        <mxCell id="zXH4Re4gvu59KK98Dr5I-208" value="" style="whiteSpace=wrap;html=1;aspect=fixed;fillColor=#610000;strokeColor=default;" parent="1" vertex="1">
          <mxGeometry x="2400" y="1600" width="160" height="160" as="geometry" />
        </mxCell>
        <mxCell id="zXH4Re4gvu59KK98Dr5I-228" value="&lt;font style=&quot;font-size: 80px;&quot;&gt;$$\lambda_1$$&lt;/font&gt;" style="text;html=1;align=center;verticalAlign=middle;whiteSpace=wrap;rounded=0;" parent="1" vertex="1">
          <mxGeometry y="-160" width="160" height="160" as="geometry" />
        </mxCell>
        <mxCell id="zXH4Re4gvu59KK98Dr5I-229" value="&lt;font style=&quot;font-size: 80px;&quot;&gt;...&lt;/font&gt;" style="text;html=1;align=center;verticalAlign=top;whiteSpace=wrap;rounded=0;" parent="1" vertex="1">
          <mxGeometry x="160" y="-160" width="160" height="160" as="geometry" />
        </mxCell>
        <mxCell id="zXH4Re4gvu59KK98Dr5I-230" value="&lt;font style=&quot;font-size: 80px;&quot;&gt;...&lt;/font&gt;" style="text;html=1;align=center;verticalAlign=middle;whiteSpace=wrap;rounded=0;" parent="1" vertex="1">
          <mxGeometry x="2240" y="-160" width="160" height="160" as="geometry" />
        </mxCell>
        <mxCell id="zXH4Re4gvu59KK98Dr5I-231" value="&lt;font style=&quot;font-size: 80px;&quot;&gt;$$\lambda_N$$&lt;/font&gt;" style="text;html=1;align=center;verticalAlign=middle;whiteSpace=wrap;rounded=0;" parent="1" vertex="1">
          <mxGeometry x="2400" y="-160" width="160" height="160" as="geometry" />
        </mxCell>
        <mxCell id="zXH4Re4gvu59KK98Dr5I-232" value="&lt;font style=&quot;font-size: 80px;&quot;&gt;$$X_1$$&lt;/font&gt;" style="text;html=1;align=left;verticalAlign=middle;whiteSpace=wrap;rounded=0;" parent="1" vertex="1">
          <mxGeometry x="-160" width="160" height="160" as="geometry" />
        </mxCell>
        <mxCell id="zXH4Re4gvu59KK98Dr5I-233" value="..." style="text;html=1;align=center;verticalAlign=top;whiteSpace=wrap;rounded=0;fontSize=80;horizontal=0;" parent="1" vertex="1">
          <mxGeometry x="-170" y="160" width="160" height="160" as="geometry" />
        </mxCell>
        <mxCell id="zXH4Re4gvu59KK98Dr5I-234" value="..." style="text;html=1;align=center;verticalAlign=top;whiteSpace=wrap;rounded=0;fontSize=80;horizontal=0;" parent="1" vertex="1">
          <mxGeometry x="-160" y="1440" width="160" height="160" as="geometry" />
        </mxCell>
        <mxCell id="zXH4Re4gvu59KK98Dr5I-235" value="&lt;font style=&quot;font-size: 80px;&quot;&gt;$$X_N$$&lt;/font&gt;" style="text;html=1;align=left;verticalAlign=middle;whiteSpace=wrap;rounded=0;" parent="1" vertex="1">
          <mxGeometry x="-160" y="1600" width="160" height="160" as="geometry" />
        </mxCell>
      </root>
    </mxGraphModel>
  </diagram>
</mxfile>
